<svg width="120" height="120" viewBox="0 0 120 120" fill="none" xmlns="http://www.w3.org/2000/svg">
<circle cx="60" cy="60" r="59" fill="white" stroke="#E4E4E4" stroke-width="2"/>
<path d="M60 2C67.6167 2 75.1588 3.50022 82.1957 6.41499C89.2325 9.32977 95.6264 13.602 101.012 18.9878C106.398 24.3736 110.67 30.7675 113.585 37.8044C116.5 44.8413 118 52.3834 118 60.0001C118 67.6168 116.5 75.1588 113.585 82.1957C110.67 89.2326 106.398 95.6265 101.012 101.012C95.6263 106.398 89.2324 110.67 82.1955 113.585C75.1586 116.5 67.6165 118 59.9998 118L60 60L60 2Z" fill="black"/>
<path d="M47.4838 40.84V41.24C47.2304 41.2933 46.9504 41.4467 46.6438 41.7C46.3371 41.94 46.0904 42.3667 45.9038 42.98L42.1238 55.1C42.0971 55.1 42.0704 55.1 42.0438 55.1C42.0171 55.1 41.9904 55.1 41.9638 55.1C41.9371 55.1 41.9104 55.1 41.8838 55.1C41.8571 55.1 41.8304 55.1 41.8038 55.1L37.5638 42.52C37.3904 42 37.1971 41.66 36.9838 41.5C36.7704 41.34 36.5704 41.2533 36.3838 41.24V40.84C36.6238 40.8533 36.9238 40.8667 37.2838 40.88C37.6438 40.8933 37.9904 40.9 38.3238 40.9C38.8438 40.9 39.3304 40.8933 39.7838 40.88C40.2371 40.8667 40.6038 40.8533 40.8838 40.84V41.24C40.4838 41.2533 40.1638 41.2933 39.9238 41.36C39.6971 41.4267 39.5638 41.5733 39.5238 41.8C39.4971 42.0267 39.5638 42.4 39.7238 42.92L42.7038 52.14L42.4238 52.38L45.0638 44.08C45.3038 43.3467 45.4104 42.78 45.3838 42.38C45.3704 41.9667 45.2238 41.68 44.9438 41.52C44.6638 41.3467 44.2438 41.2533 43.6838 41.24V40.84C44.0704 40.8533 44.4638 40.8667 44.8638 40.88C45.2638 40.8933 45.6371 40.9 45.9838 40.9C46.3304 40.9 46.6171 40.8933 46.8438 40.88C47.0704 40.8667 47.2838 40.8533 47.4838 40.84ZM33.5038 40.84V41.24C33.1571 41.2667 32.9038 41.3333 32.7438 41.44C32.5971 41.5467 32.5238 41.72 32.5238 41.96C32.5371 42.1867 32.6104 42.5067 32.7438 42.92L35.8438 52.38L35.3438 52.88L38.1438 43.94L38.4438 44.42L35.1438 55.1C35.1171 55.1 35.0904 55.1 35.0638 55.1C35.0371 55.1 35.0104 55.1 34.9838 55.1C34.9571 55.1 34.9304 55.1 34.9038 55.1C34.8771 55.1 34.8504 55.1 34.8238 55.1L30.5838 42.52C30.4104 42 30.1904 41.66 29.9238 41.5C29.6571 41.34 29.4171 41.2533 29.2037 41.24V40.84C29.4704 40.8533 29.7971 40.8667 30.1838 40.88C30.5838 40.8933 30.9704 40.9 31.3438 40.9C31.7838 40.9 32.1904 40.8933 32.5638 40.88C32.9504 40.8667 33.2638 40.8533 33.5038 40.84ZM58.2692 40.84C58.2159 41.3067 58.1759 41.76 58.1492 42.2C58.1359 42.64 58.1292 42.9733 58.1292 43.2C58.1292 43.44 58.1359 43.6733 58.1492 43.9C58.1626 44.1133 58.1759 44.2933 58.1892 44.44H57.7292C57.6492 43.6533 57.5359 43.0333 57.3892 42.58C57.2426 42.1133 56.9892 41.7867 56.6292 41.6C56.2826 41.4 55.7559 41.3 55.0492 41.3H53.3892C52.9359 41.3 52.5892 41.34 52.3492 41.42C52.1226 41.4867 51.9692 41.64 51.8892 41.88C51.8092 42.1067 51.7692 42.4667 51.7692 42.96V52.88C51.7692 53.36 51.8092 53.72 51.8892 53.96C51.9692 54.2 52.1226 54.36 52.3492 54.44C52.5892 54.5067 52.9359 54.54 53.3892 54.54H54.8492C55.6892 54.54 56.3226 54.4267 56.7492 54.2C57.1892 53.9733 57.5026 53.6067 57.6892 53.1C57.8892 52.58 58.0359 51.88 58.1292 51H58.5892C58.5492 51.36 58.5292 51.84 58.5292 52.44C58.5292 52.6933 58.5359 53.06 58.5492 53.54C58.5759 54.0067 58.6159 54.4933 58.6692 55C57.9892 54.9733 57.2226 54.96 56.3692 54.96C55.5159 54.9467 54.7559 54.94 54.0892 54.94C53.7959 54.94 53.4159 54.94 52.9492 54.94C52.4959 54.94 52.0026 54.9467 51.4692 54.96C50.9359 54.96 50.3959 54.9667 49.8492 54.98C49.3026 54.98 48.7826 54.9867 48.2892 55V54.6C48.7426 54.5733 49.0826 54.52 49.3092 54.44C49.5492 54.36 49.7092 54.2 49.7892 53.96C49.8692 53.72 49.9092 53.36 49.9092 52.88V42.96C49.9092 42.4667 49.8692 42.1067 49.7892 41.88C49.7092 41.64 49.5492 41.48 49.3092 41.4C49.0826 41.3067 48.7426 41.2533 48.2892 41.24V40.84C48.7826 40.8533 49.3026 40.8667 49.8492 40.88C50.3959 40.88 50.9359 40.8867 51.4692 40.9C52.0026 40.9 52.4959 40.9 52.9492 40.9C53.4159 40.9 53.7959 40.9 54.0892 40.9C54.7026 40.9 55.3959 40.9 56.1692 40.9C56.9559 40.8867 57.6559 40.8667 58.2692 40.84ZM54.8292 47.68C54.8292 47.68 54.8292 47.7467 54.8292 47.88C54.8292 48.0133 54.8292 48.08 54.8292 48.08H51.1692C51.1692 48.08 51.1692 48.0133 51.1692 47.88C51.1692 47.7467 51.1692 47.68 51.1692 47.68H54.8292ZM55.4092 45.04C55.3559 45.8 55.3292 46.38 55.3292 46.78C55.3426 47.18 55.3492 47.5467 55.3492 47.88C55.3492 48.2133 55.3559 48.58 55.3692 48.98C55.3826 49.38 55.4159 49.96 55.4692 50.72H55.0092C54.9559 50.2933 54.8892 49.88 54.8092 49.48C54.7426 49.0667 54.5826 48.7333 54.3292 48.48C54.0892 48.2133 53.6759 48.08 53.0892 48.08V47.68C53.5292 47.68 53.8626 47.5933 54.0892 47.42C54.3292 47.2333 54.5026 47 54.6092 46.72C54.7159 46.44 54.7892 46.1533 54.8292 45.86C54.8692 45.5533 54.9092 45.28 54.9492 45.04H55.4092ZM21.461 67.56C22.341 67.56 23.061 67.6933 23.621 67.96C24.1943 68.2133 24.701 68.5133 25.141 68.86C25.4077 69.06 25.6077 69.0867 25.741 68.94C25.8877 68.78 25.9877 68.4133 26.041 67.84H26.501C26.4743 68.3333 26.4543 68.9333 26.441 69.64C26.4277 70.3467 26.421 71.28 26.421 72.44H25.961C25.8677 71.8667 25.781 71.4133 25.701 71.08C25.621 70.7333 25.521 70.44 25.401 70.2C25.2943 69.96 25.1477 69.72 24.961 69.48C24.5477 68.9333 24.0277 68.54 23.401 68.3C22.7743 68.0467 22.1143 67.92 21.421 67.92C20.7677 67.92 20.1743 68.0867 19.641 68.42C19.121 68.74 18.6677 69.2067 18.281 69.82C17.9077 70.4333 17.6143 71.1733 17.401 72.04C17.201 72.9067 17.101 73.88 17.101 74.96C17.101 76.08 17.2143 77.0733 17.441 77.94C17.6677 78.7933 17.981 79.5133 18.381 80.1C18.7943 80.6867 19.2743 81.1333 19.821 81.44C20.381 81.7333 20.981 81.88 21.621 81.88C22.221 81.88 22.8477 81.76 23.501 81.52C24.1543 81.28 24.6677 80.8933 25.041 80.36C25.3343 79.9733 25.5343 79.5533 25.641 79.1C25.761 78.6467 25.8677 78.0133 25.961 77.2H26.421C26.421 78.4133 26.4277 79.3933 26.441 80.14C26.4543 80.8733 26.4743 81.4933 26.501 82H26.041C25.9877 81.4267 25.8943 81.0667 25.761 80.92C25.641 80.7733 25.4343 80.7933 25.141 80.98C24.6477 81.3267 24.121 81.6333 23.561 81.9C23.0143 82.1533 22.3077 82.28 21.441 82.28C20.1743 82.28 19.061 81.9933 18.101 81.42C17.1543 80.8467 16.4143 80.02 15.881 78.94C15.361 77.86 15.101 76.56 15.101 75.04C15.101 73.5467 15.3743 72.24 15.921 71.12C16.4677 70 17.2143 69.1267 18.161 68.5C19.121 67.8733 20.221 67.56 21.461 67.56ZM33.7505 67.84V68.24C33.2972 68.2533 32.9505 68.3067 32.7105 68.4C32.4839 68.48 32.3305 68.64 32.2505 68.88C32.1705 69.1067 32.1305 69.4667 32.1305 69.96V79.88C32.1305 80.36 32.1705 80.72 32.2505 80.96C32.3305 81.2 32.4839 81.36 32.7105 81.44C32.9505 81.5067 33.2972 81.54 33.7505 81.54H35.2105C35.8372 81.54 36.3439 81.4733 36.7305 81.34C37.1305 81.2067 37.4439 81 37.6705 80.72C37.9105 80.4267 38.0905 80.04 38.2105 79.56C38.3305 79.08 38.4239 78.4933 38.4905 77.8H38.9505C38.9105 78.2133 38.8905 78.76 38.8905 79.44C38.8905 79.6933 38.8972 80.06 38.9105 80.54C38.9372 81.0067 38.9772 81.4933 39.0305 82C38.3505 81.9733 37.5839 81.96 36.7305 81.96C35.8772 81.9467 35.1172 81.94 34.4505 81.94C34.1572 81.94 33.7772 81.94 33.3105 81.94C32.8572 81.94 32.3639 81.9467 31.8305 81.96C31.2972 81.96 30.7572 81.9667 30.2105 81.98C29.6639 81.98 29.1439 81.9867 28.6505 82V81.6C29.1039 81.5733 29.4439 81.52 29.6705 81.44C29.9105 81.36 30.0705 81.2 30.1505 80.96C30.2305 80.72 30.2705 80.36 30.2705 79.88V69.96C30.2705 69.4667 30.2305 69.1067 30.1505 68.88C30.0705 68.64 29.9105 68.48 29.6705 68.4C29.4439 68.3067 29.1039 68.2533 28.6505 68.24V67.84C28.9305 67.8533 29.2972 67.8667 29.7505 67.88C30.2039 67.8933 30.6905 67.9 31.2105 67.9C31.6772 67.9 32.1372 67.8933 32.5905 67.88C33.0572 67.8667 33.4439 67.8533 33.7505 67.84ZM46.0284 67.74L50.9084 80.32C51.1084 80.8267 51.335 81.1667 51.5884 81.34C51.8417 81.5 52.075 81.5867 52.2884 81.6V82C52.0217 81.9733 51.695 81.96 51.3084 81.96C50.9217 81.9467 50.535 81.94 50.1484 81.94C49.6284 81.94 49.1417 81.9467 48.6884 81.96C48.235 81.96 47.8684 81.9733 47.5884 82V81.6C48.2684 81.5733 48.7017 81.46 48.8884 81.26C49.075 81.0467 49.035 80.6 48.7684 79.92L45.0484 69.98L45.3684 69.72L41.8884 78.76C41.675 79.2933 41.5484 79.7467 41.5084 80.12C41.4684 80.48 41.5017 80.7667 41.6084 80.98C41.7284 81.1933 41.9217 81.3467 42.1884 81.44C42.4684 81.5333 42.815 81.5867 43.2284 81.6V82C42.855 81.9733 42.4617 81.96 42.0484 81.96C41.6484 81.9467 41.275 81.94 40.9284 81.94C40.595 81.94 40.3084 81.9467 40.0684 81.96C39.8417 81.96 39.6284 81.9733 39.4284 82V81.6C39.695 81.5333 39.9684 81.38 40.2484 81.14C40.5284 80.8867 40.7817 80.46 41.0084 79.86L45.7084 67.74C45.7617 67.74 45.815 67.74 45.8684 67.74C45.9217 67.74 45.975 67.74 46.0284 67.74ZM48.4684 76.24V76.64H42.5084L42.7084 76.24H48.4684Z" fill="black"/>
<path d="M76.2167 40.84V41.24C75.7634 41.2533 75.4167 41.3067 75.1767 41.4C74.9501 41.48 74.7967 41.64 74.7167 41.88C74.6367 42.1067 74.5967 42.4667 74.5967 42.96V52.88C74.5967 53.36 74.6367 53.72 74.7167 53.96C74.7967 54.2 74.9501 54.36 75.1767 54.44C75.4167 54.52 75.7634 54.5733 76.2167 54.6V55C75.9101 54.9733 75.5234 54.96 75.0567 54.96C74.6034 54.9467 74.1434 54.94 73.6767 54.94C73.1567 54.94 72.6701 54.9467 72.2167 54.96C71.7634 54.96 71.3967 54.9733 71.1167 55V54.6C71.5701 54.5733 71.9101 54.52 72.1367 54.44C72.3767 54.36 72.5367 54.2 72.6167 53.96C72.6967 53.72 72.7367 53.36 72.7367 52.88V41.88L72.8167 41.94L67.9167 55.1H67.5967L62.5567 42.12V52.68C62.5567 53.16 62.5967 53.54 62.6767 53.82C62.7701 54.0867 62.9434 54.28 63.1967 54.4C63.4634 54.5067 63.8567 54.5733 64.3767 54.6V55C64.1367 54.9733 63.8234 54.96 63.4367 54.96C63.0501 54.9467 62.6834 54.94 62.3367 54.94C62.0034 54.94 61.6634 54.9467 61.3167 54.96C60.9834 54.96 60.7034 54.9733 60.4767 55V54.6C60.9301 54.5733 61.2701 54.5067 61.4967 54.4C61.7367 54.28 61.8967 54.0867 61.9767 53.82C62.0567 53.54 62.0967 53.16 62.0967 52.68V42.96C62.0967 42.4667 62.0567 42.1067 61.9767 41.88C61.8967 41.64 61.7367 41.48 61.4967 41.4C61.2701 41.3067 60.9301 41.2533 60.4767 41.24V40.84C60.7034 40.8533 60.9834 40.8667 61.3167 40.88C61.6634 40.8933 62.0034 40.9 62.3367 40.9C62.6301 40.9 62.9301 40.8933 63.2367 40.88C63.5567 40.8667 63.8234 40.8533 64.0367 40.84L68.5767 52.8L68.2367 52.96L72.7367 40.9C72.8967 40.9 73.0501 40.9 73.1967 40.9C73.3567 40.9 73.5167 40.9 73.6767 40.9C74.1434 40.9 74.6034 40.8933 75.0567 40.88C75.5234 40.8667 75.9101 40.8533 76.2167 40.84ZM83.5186 40.74L88.3986 53.32C88.5986 53.8267 88.8253 54.1667 89.0786 54.34C89.3319 54.5 89.5653 54.5867 89.7786 54.6V55C89.5119 54.9733 89.1853 54.96 88.7986 54.96C88.4119 54.9467 88.0253 54.94 87.6386 54.94C87.1186 54.94 86.6319 54.9467 86.1786 54.96C85.7253 54.96 85.3586 54.9733 85.0786 55V54.6C85.7586 54.5733 86.1919 54.46 86.3786 54.26C86.5653 54.0467 86.5253 53.6 86.2586 52.92L82.5386 42.98L82.8586 42.72L79.3786 51.76C79.1653 52.2933 79.0386 52.7467 78.9986 53.12C78.9586 53.48 78.9919 53.7667 79.0986 53.98C79.2186 54.1933 79.4119 54.3467 79.6786 54.44C79.9586 54.5333 80.3053 54.5867 80.7186 54.6V55C80.3453 54.9733 79.9519 54.96 79.5386 54.96C79.1386 54.9467 78.7653 54.94 78.4186 54.94C78.0853 54.94 77.7986 54.9467 77.5586 54.96C77.3319 54.96 77.1186 54.9733 76.9186 55V54.6C77.1853 54.5333 77.4586 54.38 77.7386 54.14C78.0186 53.8867 78.2719 53.46 78.4986 52.86L83.1986 40.74C83.2519 40.74 83.3053 40.74 83.3586 40.74C83.4119 40.74 83.4653 40.74 83.5186 40.74ZM85.9586 49.24V49.64H79.9986L80.1986 49.24H85.9586ZM68.0868 67.62C68.7535 67.62 69.2601 67.7 69.6068 67.86C69.9535 68.0067 70.2601 68.1733 70.5268 68.36C70.6868 68.4533 70.8135 68.5267 70.9068 68.58C71.0135 68.62 71.1135 68.64 71.2068 68.64C71.3401 68.64 71.4335 68.5667 71.4868 68.42C71.5535 68.2733 71.6068 68.0533 71.6468 67.76H72.1068C72.0935 67.9867 72.0735 68.26 72.0468 68.58C72.0335 68.8867 72.0201 69.3 72.0068 69.82C72.0068 70.3267 72.0068 71 72.0068 71.84H71.5468C71.5068 71.2 71.3668 70.5867 71.1268 70C70.8868 69.4133 70.5335 68.9333 70.0668 68.56C69.6135 68.1867 69.0135 68 68.2668 68C67.5601 68 66.9735 68.2133 66.5068 68.64C66.0535 69.0667 65.8268 69.6267 65.8268 70.32C65.8268 70.92 65.9801 71.4267 66.2868 71.84C66.5935 72.24 67.0001 72.6067 67.5068 72.94C68.0268 73.26 68.5868 73.6067 69.1868 73.98C69.8801 74.4067 70.4935 74.8333 71.0268 75.26C71.5735 75.6733 72.0001 76.1333 72.3068 76.64C72.6268 77.1467 72.7868 77.76 72.7868 78.48C72.7868 79.3333 72.5935 80.04 72.2068 80.6C71.8201 81.16 71.3068 81.58 70.6668 81.86C70.0268 82.14 69.3201 82.28 68.5468 82.28C67.8401 82.28 67.2801 82.2 66.8668 82.04C66.4535 81.88 66.1001 81.7133 65.8068 81.54C65.5135 81.3533 65.2868 81.26 65.1268 81.26C64.9935 81.26 64.8935 81.3333 64.8268 81.48C64.7735 81.6267 64.7268 81.8467 64.6868 82.14H64.2268C64.2535 81.86 64.2668 81.5333 64.2668 81.16C64.2801 80.7733 64.2868 80.2733 64.2868 79.66C64.3001 79.0467 64.3068 78.2733 64.3068 77.34H64.7668C64.8201 78.14 64.9668 78.8867 65.2068 79.58C65.4601 80.2733 65.8401 80.8333 66.3468 81.26C66.8668 81.6733 67.5535 81.88 68.4068 81.88C68.8468 81.88 69.2601 81.7933 69.6468 81.62C70.0468 81.4333 70.3735 81.1467 70.6268 80.76C70.8801 80.36 71.0068 79.8467 71.0068 79.22C71.0068 78.6733 70.8735 78.2 70.6068 77.8C70.3535 77.3867 69.9935 77.0067 69.5268 76.66C69.0601 76.3 68.5135 75.9333 67.8868 75.56C67.2601 75.1733 66.6735 74.78 66.1268 74.38C65.5801 73.98 65.1401 73.52 64.8068 73C64.4868 72.4667 64.3268 71.8267 64.3268 71.08C64.3268 70.2933 64.5001 69.6467 64.8468 69.14C65.2068 68.62 65.6735 68.24 66.2468 68C66.8201 67.7467 67.4335 67.62 68.0868 67.62ZM79.7076 67.84V68.24C79.2542 68.2533 78.9076 68.3067 78.6676 68.4C78.4409 68.48 78.2876 68.64 78.2076 68.88C78.1276 69.1067 78.0876 69.4667 78.0876 69.96V79.88C78.0876 80.36 78.1276 80.72 78.2076 80.96C78.2876 81.2 78.4409 81.36 78.6676 81.44C78.9076 81.52 79.2542 81.5733 79.7076 81.6V82C79.4009 81.9733 79.0142 81.96 78.5476 81.96C78.0942 81.9467 77.6342 81.94 77.1676 81.94C76.6476 81.94 76.1609 81.9467 75.7076 81.96C75.2542 81.96 74.8876 81.9733 74.6076 82V81.6C75.0609 81.5733 75.4009 81.52 75.6276 81.44C75.8676 81.36 76.0276 81.2 76.1076 80.96C76.1876 80.72 76.2276 80.36 76.2276 79.88V69.96C76.2276 69.4667 76.1876 69.1067 76.1076 68.88C76.0276 68.64 75.8676 68.48 75.6276 68.4C75.4009 68.3067 75.0609 68.2533 74.6076 68.24V67.84C74.8876 67.8533 75.2542 67.8667 75.7076 67.88C76.1609 67.8933 76.6476 67.9 77.1676 67.9C77.6342 67.9 78.0942 67.8933 78.5476 67.88C79.0142 67.8667 79.4009 67.8533 79.7076 67.84ZM87.8087 67.56C88.6887 67.56 89.4087 67.6933 89.9687 67.96C90.542 68.2133 91.0487 68.5133 91.4887 68.86C91.7553 69.06 91.9553 69.0867 92.0887 68.94C92.2353 68.78 92.3353 68.4133 92.3887 67.84H92.8487C92.822 68.3333 92.802 68.9333 92.7887 69.64C92.7753 70.3467 92.7687 71.28 92.7687 72.44H92.3087C92.2153 71.8667 92.1287 71.4133 92.0487 71.08C91.9687 70.7333 91.8687 70.44 91.7487 70.2C91.642 69.96 91.4953 69.72 91.3087 69.48C90.8953 68.9333 90.3753 68.54 89.7487 68.3C89.122 68.0467 88.462 67.92 87.7687 67.92C87.1153 67.92 86.522 68.0867 85.9887 68.42C85.4687 68.74 85.0153 69.2067 84.6287 69.82C84.2553 70.4333 83.962 71.1733 83.7487 72.04C83.5487 72.9067 83.4487 73.88 83.4487 74.96C83.4487 76.08 83.562 77.0733 83.7887 77.94C84.0153 78.7933 84.3287 79.5133 84.7287 80.1C85.142 80.6867 85.622 81.1333 86.1687 81.44C86.7287 81.7333 87.3287 81.88 87.9687 81.88C88.5687 81.88 89.1953 81.76 89.8487 81.52C90.502 81.28 91.0153 80.8933 91.3887 80.36C91.682 79.9733 91.882 79.5533 91.9887 79.1C92.1087 78.6467 92.2153 78.0133 92.3087 77.2H92.7687C92.7687 78.4133 92.7753 79.3933 92.7887 80.14C92.802 80.8733 92.822 81.4933 92.8487 82H92.3887C92.3353 81.4267 92.242 81.0667 92.1087 80.92C91.9887 80.7733 91.782 80.7933 91.4887 80.98C90.9953 81.3267 90.4687 81.6333 89.9087 81.9C89.362 82.1533 88.6553 82.28 87.7887 82.28C86.522 82.28 85.4087 81.9933 84.4487 81.42C83.502 80.8467 82.762 80.02 82.2287 78.94C81.7087 77.86 81.4487 76.56 81.4487 75.04C81.4487 73.5467 81.722 72.24 82.2687 71.12C82.8153 70 83.562 69.1267 84.5087 68.5C85.4687 67.8733 86.5687 67.56 87.8087 67.56ZM99.2782 67.62C99.9449 67.62 100.452 67.7 100.798 67.86C101.145 68.0067 101.452 68.1733 101.718 68.36C101.878 68.4533 102.005 68.5267 102.098 68.58C102.205 68.62 102.305 68.64 102.398 68.64C102.532 68.64 102.625 68.5667 102.678 68.42C102.745 68.2733 102.798 68.0533 102.838 67.76H103.298C103.285 67.9867 103.265 68.26 103.238 68.58C103.225 68.8867 103.212 69.3 103.198 69.82C103.198 70.3267 103.198 71 103.198 71.84H102.738C102.698 71.2 102.558 70.5867 102.318 70C102.078 69.4133 101.725 68.9333 101.258 68.56C100.805 68.1867 100.205 68 99.4582 68C98.7515 68 98.1649 68.2133 97.6982 68.64C97.2449 69.0667 97.0182 69.6267 97.0182 70.32C97.0182 70.92 97.1715 71.4267 97.4782 71.84C97.7849 72.24 98.1915 72.6067 98.6982 72.94C99.2182 73.26 99.7782 73.6067 100.378 73.98C101.072 74.4067 101.685 74.8333 102.218 75.26C102.765 75.6733 103.192 76.1333 103.498 76.64C103.818 77.1467 103.978 77.76 103.978 78.48C103.978 79.3333 103.785 80.04 103.398 80.6C103.012 81.16 102.498 81.58 101.858 81.86C101.218 82.14 100.512 82.28 99.7382 82.28C99.0315 82.28 98.4715 82.2 98.0582 82.04C97.6449 81.88 97.2915 81.7133 96.9982 81.54C96.7049 81.3533 96.4782 81.26 96.3182 81.26C96.1849 81.26 96.0849 81.3333 96.0182 81.48C95.9649 81.6267 95.9182 81.8467 95.8782 82.14H95.4182C95.4449 81.86 95.4582 81.5333 95.4582 81.16C95.4715 80.7733 95.4782 80.2733 95.4782 79.66C95.4915 79.0467 95.4982 78.2733 95.4982 77.34H95.9582C96.0115 78.14 96.1582 78.8867 96.3982 79.58C96.6515 80.2733 97.0315 80.8333 97.5382 81.26C98.0582 81.6733 98.7449 81.88 99.5982 81.88C100.038 81.88 100.452 81.7933 100.838 81.62C101.238 81.4333 101.565 81.1467 101.818 80.76C102.072 80.36 102.198 79.8467 102.198 79.22C102.198 78.6733 102.065 78.2 101.798 77.8C101.545 77.3867 101.185 77.0067 100.718 76.66C100.252 76.3 99.7049 75.9333 99.0782 75.56C98.4515 75.1733 97.8649 74.78 97.3182 74.38C96.7715 73.98 96.3315 73.52 95.9982 73C95.6782 72.4667 95.5182 71.8267 95.5182 71.08C95.5182 70.2933 95.6915 69.6467 96.0382 69.14C96.3982 68.62 96.8649 68.24 97.4382 68C98.0115 67.7467 98.6249 67.62 99.2782 67.62Z" fill="white"/>
<path d="M57.286 67.62C57.9527 67.62 58.4593 67.7 58.806 67.86C59.1527 68.0067 59.4593 68.1733 59.726 68.36C59.886 68.4533 60.0127 68.5267 60.106 68.58C60.2127 68.62 60.3127 68.64 60.406 68.64C60.5393 68.64 60.6327 68.5667 60.686 68.42C60.7527 68.2733 60.806 68.0533 60.846 67.76H61.306C61.2927 67.9867 61.2727 68.26 61.246 68.58C61.2327 68.8867 61.2193 69.3 61.206 69.82C61.206 70.3267 61.206 71 61.206 71.84H60.746C60.706 71.2 60.566 70.5867 60.326 70C60.086 69.4133 59.7327 68.9333 59.266 68.56C58.8127 68.1867 58.2127 68 57.466 68C56.7593 68 56.1727 68.2133 55.706 68.64C55.2527 69.0667 55.026 69.6267 55.026 70.32C55.026 70.92 55.1793 71.4267 55.486 71.84C55.7927 72.24 56.1993 72.6067 56.706 72.94C57.226 73.26 57.786 73.6067 58.386 73.98C59.0793 74.4067 59.6927 74.8333 60.226 75.26C60.7727 75.6733 61.1993 76.1333 61.506 76.64C61.826 77.1467 61.986 77.76 61.986 78.48C61.986 79.3333 61.7927 80.04 61.406 80.6C61.0193 81.16 60.506 81.58 59.866 81.86C59.226 82.14 58.5193 82.28 57.746 82.28C57.0393 82.28 56.4793 82.2 56.066 82.04C55.6527 81.88 55.2993 81.7133 55.006 81.54C54.7127 81.3533 54.486 81.26 54.326 81.26C54.1927 81.26 54.0927 81.3333 54.026 81.48C53.9727 81.6267 53.926 81.8467 53.886 82.14H53.426C53.4527 81.86 53.466 81.5333 53.466 81.16C53.4793 80.7733 53.486 80.2733 53.486 79.66C53.4993 79.0467 53.506 78.2733 53.506 77.34H53.966C54.0193 78.14 54.166 78.8867 54.406 79.58C54.6593 80.2733 55.0393 80.8333 55.546 81.26C56.066 81.6733 56.7527 81.88 57.606 81.88C58.046 81.88 58.4593 81.7933 58.846 81.62C59.246 81.4333 59.5727 81.1467 59.826 80.76C60.0793 80.36 60.206 79.8467 60.206 79.22C60.206 78.6733 60.0727 78.2 59.806 77.8C59.5527 77.3867 59.1927 77.0067 58.726 76.66C58.2593 76.3 57.7127 75.9333 57.086 75.56C56.4593 75.1733 55.8727 74.78 55.326 74.38C54.7793 73.98 54.3393 73.52 54.006 73C53.686 72.4667 53.526 71.8267 53.526 71.08C53.526 70.2933 53.6993 69.6467 54.046 69.14C54.406 68.62 54.8727 68.24 55.446 68C56.0193 67.7467 56.6327 67.62 57.286 67.62Z" fill="#4B4B4B"/>
</svg>
